<svg xmlns="http://www.w3.org/2000/svg" width="960" height="520" viewBox="0 0 960 520">
  <defs>
    <radialGradient id="bg" cx="50%" cy="50%" r="70%">
      <stop offset="0%" stop-color="#222222"/>
      <stop offset="100%" stop-color="#141414"/>
    </radialGradient>
    <filter id="glow" x="-40%" y="-40%" width="180%" height="180%">
      <feGaussianBlur stdDeviation="3.5" result="coloredBlur"/>
      <feMerge>
        <feMergeNode in="coloredBlur"/>
        <feMergeNode in="SourceGraphic"/>
      </feMerge>
    </filter>
  </defs>
  <rect width="960" height="520" fill="url(#bg)" rx="8"/>
  <g id="edges">
  <line x1="323.7" y1="316.1" x2="389.9" y2="440.0" stroke="#ffffff" stroke-opacity="0.18" stroke-width="1.5"/>
  <line x1="323.7" y1="316.1" x2="80.0" y2="220.3" stroke="#ffffff" stroke-opacity="0.18" stroke-width="1.5"/>
  <line x1="323.7" y1="316.1" x2="567.8" y2="440.0" stroke="#ffffff" stroke-opacity="0.18" stroke-width="1.5"/>
  <line x1="323.7" y1="316.1" x2="158.9" y2="440.0" stroke="#ffffff" stroke-opacity="0.18" stroke-width="1.5"/>
  <line x1="323.7" y1="316.1" x2="321.0" y2="80.0" stroke="#ffffff" stroke-opacity="0.18" stroke-width="1.5"/>
  <line x1="323.7" y1="316.1" x2="80.0" y2="351.4" stroke="#ffffff" stroke-opacity="0.18" stroke-width="1.5"/>
  <line x1="323.7" y1="316.1" x2="80.0" y2="440.0" stroke="#ffffff" stroke-opacity="0.18" stroke-width="1.5"/>
  <line x1="567.8" y1="440.0" x2="770.3" y2="440.0" stroke="#ffffff" stroke-opacity="0.18" stroke-width="1.5"/>
  <line x1="701.3" y1="209.5" x2="880.0" y2="80.0" stroke="#ffffff" stroke-opacity="0.18" stroke-width="1.5"/>
  <line x1="701.3" y1="209.5" x2="880.0" y2="183.1" stroke="#ffffff" stroke-opacity="0.18" stroke-width="1.5"/>
  <line x1="701.3" y1="209.5" x2="323.7" y2="316.1" stroke="#ffffff" stroke-opacity="0.18" stroke-width="1.5"/>
  <line x1="701.3" y1="209.5" x2="880.0" y2="311.7" stroke="#ffffff" stroke-opacity="0.18" stroke-width="1.5"/>
  <line x1="389.9" y1="440.0" x2="270.9" y2="440.0" stroke="#ffffff" stroke-opacity="0.18" stroke-width="1.5"/>
  <line x1="80.0" y1="220.3" x2="80.0" y2="80.0" stroke="#ffffff" stroke-opacity="0.18" stroke-width="1.5"/>
  <line x1="770.3" y1="440.0" x2="880.0" y2="440.0" stroke="#ffffff" stroke-opacity="0.18" stroke-width="1.5"/>
  <line x1="321.0" y1="80.0" x2="208.2" y2="80.0" stroke="#ffffff" stroke-opacity="0.18" stroke-width="1.5"/>
  <line x1="321.0" y1="80.0" x2="127.2" y2="80.0" stroke="#ffffff" stroke-opacity="0.18" stroke-width="1.5"/>
  <line x1="321.0" y1="80.0" x2="528.7" y2="80.0" stroke="#ffffff" stroke-opacity="0.18" stroke-width="1.5"/>
  <line x1="321.0" y1="80.0" x2="430.2" y2="80.0" stroke="#ffffff" stroke-opacity="0.18" stroke-width="1.5"/>
  <line x1="701.3" y1="209.5" x2="809.4" y2="80.0" stroke="#ffffff" stroke-opacity="0.18" stroke-width="1.5"/>
  </g>
  <g id="nodes">
  <circle cx="880.0" cy="80.0" r="7.3" fill="#56c2d6" fill-opacity="0.9" filter="url(#glow)"/>
  <text x="880.0" y="99.3" text-anchor="middle" font-size="10" font-family="-apple-system,BlinkMacSystemFont,'Segoe UI',sans-serif" fill="#d4d4d4" fill-opacity="0.85">Inbox</text>
  <circle cx="880.0" cy="183.1" r="7.3" fill="#7ec8e3" fill-opacity="0.9" filter="url(#glow)"/>
  <text x="880.0" y="202.4" text-anchor="middle" font-size="10" font-family="-apple-system,BlinkMacSystemFont,'Segoe UI',sans-serif" fill="#d4d4d4" fill-opacity="0.85">Projects</text>
  <circle cx="323.7" cy="316.1" r="12.4" fill="#6dbf6d" fill-opacity="0.9" filter="url(#glow)"/>
  <text x="323.7" y="340.5" text-anchor="middle" font-size="10" font-family="-apple-system,BlinkMacSystemFont,'Segoe UI',sans-serif" fill="#d4d4d4" fill-opacity="0.85">Resources</text>
  <circle cx="389.9" cy="440.0" r="8.5" fill="#6dbf6d" fill-opacity="0.9" filter="url(#glow)"/>
  <text x="389.9" y="460.5" text-anchor="middle" font-size="10" font-family="-apple-system,BlinkMacSystemFont,'Segoe UI',sans-serif" fill="#d4d4d4" fill-opacity="0.85">Ai</text>
  <circle cx="80.0" cy="220.3" r="8.5" fill="#6dbf6d" fill-opacity="0.9" filter="url(#glow)"/>
  <text x="80.0" y="240.8" text-anchor="middle" font-size="10" font-family="-apple-system,BlinkMacSystemFont,'Segoe UI',sans-serif" fill="#d4d4d4" fill-opacity="0.85">Coding</text>
  <circle cx="567.8" cy="440.0" r="8.5" fill="#6dbf6d" fill-opacity="0.9" filter="url(#glow)"/>
  <text x="567.8" y="460.5" text-anchor="middle" font-size="10" font-family="-apple-system,BlinkMacSystemFont,'Segoe UI',sans-serif" fill="#d4d4d4" fill-opacity="0.85">Cybersecurity</text>
  <circle cx="770.3" cy="440.0" r="8.5" fill="#6dbf6d" fill-opacity="0.9" filter="url(#glow)"/>
  <text x="770.3" y="460.5" text-anchor="middle" font-size="10" font-family="-apple-system,BlinkMacSystemFont,'Segoe UI',sans-serif" fill="#d4d4d4" fill-opacity="0.85">Digital Forensics And Incident Response</text>
  <circle cx="158.9" cy="440.0" r="7.3" fill="#6dbf6d" fill-opacity="0.9" filter="url(#glow)"/>
  <text x="158.9" y="459.3" text-anchor="middle" font-size="10" font-family="-apple-system,BlinkMacSystemFont,'Segoe UI',sans-serif" fill="#d4d4d4" fill-opacity="0.85">Finances</text>
  <circle cx="321.0" cy="80.0" r="10.8" fill="#6dbf6d" fill-opacity="0.9" filter="url(#glow)"/>
  <text x="321.0" y="102.8" text-anchor="middle" font-size="10" font-family="-apple-system,BlinkMacSystemFont,'Segoe UI',sans-serif" fill="#d4d4d4" fill-opacity="0.85">Grc Engineering</text>
  <circle cx="80.0" cy="351.4" r="7.3" fill="#6dbf6d" fill-opacity="0.9" filter="url(#glow)"/>
  <text x="80.0" y="370.7" text-anchor="middle" font-size="10" font-family="-apple-system,BlinkMacSystemFont,'Segoe UI',sans-serif" fill="#d4d4d4" fill-opacity="0.85">Health</text>
  <circle cx="80.0" cy="440.0" r="7.3" fill="#6dbf6d" fill-opacity="0.9" filter="url(#glow)"/>
  <text x="80.0" y="459.3" text-anchor="middle" font-size="10" font-family="-apple-system,BlinkMacSystemFont,'Segoe UI',sans-serif" fill="#d4d4d4" fill-opacity="0.85">Philosophy</text>
  <circle cx="880.0" cy="311.7" r="7.3" fill="#909090" fill-opacity="0.9" filter="url(#glow)"/>
  <text x="880.0" y="331.0" text-anchor="middle" font-size="10" font-family="-apple-system,BlinkMacSystemFont,'Segoe UI',sans-serif" fill="#d4d4d4" fill-opacity="0.85">Archives</text>
  <circle cx="701.3" cy="209.5" r="10.8" fill="#e4c97e" fill-opacity="0.9" filter="url(#glow)"/>
  <text x="701.3" y="232.3" text-anchor="middle" font-size="10" font-family="-apple-system,BlinkMacSystemFont,'Segoe UI',sans-serif" fill="#d4d4d4" fill-opacity="0.85">Second Brain</text>
  <polygon points="270.9,432.0 278.9,440.0 270.9,448.0 262.9,440.0" fill="#e8a87c" fill-opacity="0.85" filter="url(#glow)"/>
  <text x="270.9" y="459.3" text-anchor="middle" font-size="10" font-family="-apple-system,BlinkMacSystemFont,'Segoe UI',sans-serif" fill="#d4d4d4" fill-opacity="0.85">Claude Certified Architect — Foundations: Learning Journey &amp; Exam Experience</text>
  <polygon points="80.0,72.0 88.0,80.0 80.0,88.0 72.0,80.0" fill="#e8a87c" fill-opacity="0.85" filter="url(#glow)"/>
  <text x="80.0" y="99.3" text-anchor="middle" font-size="10" font-family="-apple-system,BlinkMacSystemFont,'Segoe UI',sans-serif" fill="#d4d4d4" fill-opacity="0.85">Total TypeScript Tutorials</text>
  <polygon points="880.0,432.0 888.0,440.0 880.0,448.0 872.0,440.0" fill="#e8a87c" fill-opacity="0.85" filter="url(#glow)"/>
  <text x="880.0" y="459.3" text-anchor="middle" font-size="10" font-family="-apple-system,BlinkMacSystemFont,'Segoe UI',sans-serif" fill="#d4d4d4" fill-opacity="0.85">Applied Incident Response</text>
  <polygon points="208.2,72.0 216.2,80.0 208.2,88.0 200.2,80.0" fill="#e8a87c" fill-opacity="0.85" filter="url(#glow)"/>
  <text x="208.2" y="99.3" text-anchor="middle" font-size="10" font-family="-apple-system,BlinkMacSystemFont,'Segoe UI',sans-serif" fill="#d4d4d4" fill-opacity="0.85">GRC Eng Club Academy</text>
  <polygon points="127.2,72.0 135.3,80.0 127.2,88.0 119.2,80.0" fill="#e8a87c" fill-opacity="0.85" filter="url(#glow)"/>
  <text x="127.2" y="99.3" text-anchor="middle" font-size="10" font-family="-apple-system,BlinkMacSystemFont,'Segoe UI',sans-serif" fill="#d4d4d4" fill-opacity="0.85">GRC Engineering</text>
  <polygon points="528.7,72.0 536.8,80.0 528.7,88.0 520.7,80.0" fill="#e8a87c" fill-opacity="0.85" filter="url(#glow)"/>
  <text x="528.7" y="99.3" text-anchor="middle" font-size="10" font-family="-apple-system,BlinkMacSystemFont,'Segoe UI',sans-serif" fill="#d4d4d4" fill-opacity="0.85">GRC Playground</text>
  <polygon points="430.2,72.0 438.2,80.0 430.2,88.0 422.2,80.0" fill="#e8a87c" fill-opacity="0.85" filter="url(#glow)"/>
  <text x="430.2" y="99.3" text-anchor="middle" font-size="10" font-family="-apple-system,BlinkMacSystemFont,'Segoe UI',sans-serif" fill="#d4d4d4" fill-opacity="0.85">OPA Rego Course — Styra Academy</text>
  <polygon points="809.4,72.0 817.4,80.0 809.4,88.0 801.3,80.0" fill="#e8a87c" fill-opacity="0.85" filter="url(#glow)"/>
  <text x="809.4" y="99.3" text-anchor="middle" font-size="10" font-family="-apple-system,BlinkMacSystemFont,'Segoe UI',sans-serif" fill="#d4d4d4" fill-opacity="0.85">→ Open interactive graph</text>
  </g>
  <rect x="14" y="372" width="100" height="130" rx="6" fill="#141414" fill-opacity="0.88" stroke="#363636" stroke-width="1"/>
  <text x="23" y="385" font-size="9" font-family="-apple-system,BlinkMacSystemFont,'Segoe UI',sans-serif" fill="#666" letter-spacing="0.08em">LEGEND</text>
  <circle cx="27" cy="401" r="4.5" fill="#56c2d6"/>
  <text x="38" y="405" font-size="10" font-family="-apple-system,BlinkMacSystemFont,'Segoe UI',sans-serif" fill="#bbbbbb">Inbox</text>
  <circle cx="27" cy="419" r="4.5" fill="#7ec8e3"/>
  <text x="38" y="423" font-size="10" font-family="-apple-system,BlinkMacSystemFont,'Segoe UI',sans-serif" fill="#bbbbbb">Projects</text>
  <circle cx="27" cy="437" r="4.5" fill="#6dbf6d"/>
  <text x="38" y="441" font-size="10" font-family="-apple-system,BlinkMacSystemFont,'Segoe UI',sans-serif" fill="#bbbbbb">Resources</text>
  <circle cx="27" cy="455" r="4.5" fill="#909090"/>
  <text x="38" y="459" font-size="10" font-family="-apple-system,BlinkMacSystemFont,'Segoe UI',sans-serif" fill="#bbbbbb">Archives</text>
  <circle cx="27" cy="473" r="4.5" fill="#e4c97e"/>
  <text x="38" y="477" font-size="10" font-family="-apple-system,BlinkMacSystemFont,'Segoe UI',sans-serif" fill="#bbbbbb">Root</text>
  <circle cx="27" cy="491" r="4.5" fill="#e8a87c"/>
  <text x="38" y="495" font-size="10" font-family="-apple-system,BlinkMacSystemFont,'Segoe UI',sans-serif" fill="#bbbbbb">Resource Link</text>
  <rect x="805" y="12" width="143" height="24" rx="5" fill="#141414" fill-opacity="0.88" stroke="#363636" stroke-width="1"/>
  <text x="876" y="28" text-anchor="middle" font-size="10" font-family="-apple-system,BlinkMacSystemFont,'Segoe UI',sans-serif" fill="#888">21 notes · 20 connections</text>
</svg>