<svg xmlns="http://www.w3.org/2000/svg" width="960" height="520" viewBox="0 0 960 520">
  <defs>
    <radialGradient id="bg" cx="50%" cy="50%" r="70%">
      <stop offset="0%" stop-color="#222222"/>
      <stop offset="100%" stop-color="#141414"/>
    </radialGradient>
    <filter id="glow" x="-40%" y="-40%" width="180%" height="180%">
      <feGaussianBlur stdDeviation="3.5" result="coloredBlur"/>
      <feMerge>
        <feMergeNode in="coloredBlur"/>
        <feMergeNode in="SourceGraphic"/>
      </feMerge>
    </filter>
  </defs>
  <rect width="960" height="520" fill="url(#bg)" rx="8"/>
  <g id="edges">
  <line x1="648.8" y1="307.2" x2="806.9" y2="440.0" stroke="#ffffff" stroke-opacity="0.18" stroke-width="1.5"/>
  <line x1="648.8" y1="307.2" x2="880.0" y2="217.9" stroke="#ffffff" stroke-opacity="0.18" stroke-width="1.5"/>
  <line x1="648.8" y1="307.2" x2="745.6" y2="440.0" stroke="#ffffff" stroke-opacity="0.18" stroke-width="1.5"/>
  <line x1="648.8" y1="307.2" x2="637.2" y2="440.0" stroke="#ffffff" stroke-opacity="0.18" stroke-width="1.5"/>
  <line x1="648.8" y1="307.2" x2="663.0" y2="80.0" stroke="#ffffff" stroke-opacity="0.18" stroke-width="1.5"/>
  <line x1="648.8" y1="307.2" x2="533.8" y2="440.0" stroke="#ffffff" stroke-opacity="0.18" stroke-width="1.5"/>
  <line x1="745.6" y1="440.0" x2="880.0" y2="440.0" stroke="#ffffff" stroke-opacity="0.18" stroke-width="1.5"/>
  <line x1="88.7" y1="256.0" x2="80.0" y2="135.6" stroke="#ffffff" stroke-opacity="0.18" stroke-width="1.5"/>
  <line x1="88.7" y1="256.0" x2="80.0" y2="440.0" stroke="#ffffff" stroke-opacity="0.18" stroke-width="1.5"/>
  <line x1="88.7" y1="256.0" x2="80.0" y2="135.6" stroke="#ffffff" stroke-opacity="0.18" stroke-width="1.5"/>
  <line x1="88.7" y1="256.0" x2="80.0" y2="341.5" stroke="#ffffff" stroke-opacity="0.18" stroke-width="1.5"/>
  <line x1="88.7" y1="256.0" x2="80.0" y2="80.0" stroke="#ffffff" stroke-opacity="0.18" stroke-width="1.5"/>
  <line x1="88.7" y1="256.0" x2="80.0" y2="405.6" stroke="#ffffff" stroke-opacity="0.18" stroke-width="1.5"/>
  <line x1="349.6" y1="249.9" x2="494.9" y2="80.0" stroke="#ffffff" stroke-opacity="0.18" stroke-width="1.5"/>
  <line x1="349.6" y1="249.9" x2="433.7" y2="80.0" stroke="#ffffff" stroke-opacity="0.18" stroke-width="1.5"/>
  <line x1="349.6" y1="249.9" x2="648.8" y2="307.2" stroke="#ffffff" stroke-opacity="0.18" stroke-width="1.5"/>
  <line x1="349.6" y1="249.9" x2="228.7" y2="440.0" stroke="#ffffff" stroke-opacity="0.18" stroke-width="1.5"/>
  <line x1="349.6" y1="249.9" x2="328.6" y2="440.0" stroke="#ffffff" stroke-opacity="0.18" stroke-width="1.5"/>
  <line x1="349.6" y1="249.9" x2="88.7" y2="256.0" stroke="#ffffff" stroke-opacity="0.18" stroke-width="1.5"/>
  <line x1="806.9" y1="440.0" x2="880.0" y2="440.0" stroke="#ffffff" stroke-opacity="0.18" stroke-width="1.5"/>
  <line x1="880.0" y1="217.9" x2="880.0" y2="80.0" stroke="#ffffff" stroke-opacity="0.18" stroke-width="1.5"/>
  <line x1="880.0" y1="440.0" x2="880.0" y2="347.9" stroke="#ffffff" stroke-opacity="0.18" stroke-width="1.5"/>
  <line x1="663.0" y1="80.0" x2="399.0" y2="80.0" stroke="#ffffff" stroke-opacity="0.18" stroke-width="1.5"/>
  <line x1="663.0" y1="80.0" x2="748.7" y2="80.0" stroke="#ffffff" stroke-opacity="0.18" stroke-width="1.5"/>
  <line x1="663.0" y1="80.0" x2="816.4" y2="80.0" stroke="#ffffff" stroke-opacity="0.18" stroke-width="1.5"/>
  <line x1="663.0" y1="80.0" x2="880.0" y2="80.0" stroke="#ffffff" stroke-opacity="0.18" stroke-width="1.5"/>
  <line x1="349.6" y1="249.9" x2="230.0" y2="80.0" stroke="#ffffff" stroke-opacity="0.18" stroke-width="1.5"/>
  </g>
  <g id="nodes">
  <circle cx="494.9" cy="80.0" r="7.3" fill="#56c2d6" fill-opacity="0.9" filter="url(#glow)"/>
  <text x="494.9" y="99.3" text-anchor="middle" font-size="10" font-family="-apple-system,BlinkMacSystemFont,'Segoe UI',sans-serif" fill="#d4d4d4" fill-opacity="0.85">Inbox</text>
  <circle cx="433.7" cy="80.0" r="7.3" fill="#7ec8e3" fill-opacity="0.9" filter="url(#glow)"/>
  <text x="433.7" y="99.3" text-anchor="middle" font-size="10" font-family="-apple-system,BlinkMacSystemFont,'Segoe UI',sans-serif" fill="#d4d4d4" fill-opacity="0.85">Projects</text>
  <circle cx="648.8" cy="307.2" r="11.9" fill="#6dbf6d" fill-opacity="0.9" filter="url(#glow)"/>
  <text x="648.8" y="331.1" text-anchor="middle" font-size="10" font-family="-apple-system,BlinkMacSystemFont,'Segoe UI',sans-serif" fill="#d4d4d4" fill-opacity="0.85">Resources</text>
  <circle cx="806.9" cy="440.0" r="8.5" fill="#6dbf6d" fill-opacity="0.9" filter="url(#glow)"/>
  <text x="806.9" y="460.5" text-anchor="middle" font-size="10" font-family="-apple-system,BlinkMacSystemFont,'Segoe UI',sans-serif" fill="#d4d4d4" fill-opacity="0.85">Ai</text>
  <circle cx="880.0" cy="217.9" r="8.5" fill="#6dbf6d" fill-opacity="0.9" filter="url(#glow)"/>
  <text x="880.0" y="238.4" text-anchor="middle" font-size="10" font-family="-apple-system,BlinkMacSystemFont,'Segoe UI',sans-serif" fill="#d4d4d4" fill-opacity="0.85">Coding</text>
  <circle cx="745.6" cy="440.0" r="8.5" fill="#6dbf6d" fill-opacity="0.9" filter="url(#glow)"/>
  <text x="745.6" y="460.5" text-anchor="middle" font-size="10" font-family="-apple-system,BlinkMacSystemFont,'Segoe UI',sans-serif" fill="#d4d4d4" fill-opacity="0.85">Cybersecurity</text>
  <circle cx="880.0" cy="440.0" r="8.5" fill="#6dbf6d" fill-opacity="0.9" filter="url(#glow)"/>
  <text x="880.0" y="460.5" text-anchor="middle" font-size="10" font-family="-apple-system,BlinkMacSystemFont,'Segoe UI',sans-serif" fill="#d4d4d4" fill-opacity="0.85">Digital Forensics And Incident Response</text>
  <circle cx="637.2" cy="440.0" r="7.3" fill="#6dbf6d" fill-opacity="0.9" filter="url(#glow)"/>
  <text x="637.2" y="459.3" text-anchor="middle" font-size="10" font-family="-apple-system,BlinkMacSystemFont,'Segoe UI',sans-serif" fill="#d4d4d4" fill-opacity="0.85">Finances</text>
  <circle cx="663.0" cy="80.0" r="10.8" fill="#6dbf6d" fill-opacity="0.9" filter="url(#glow)"/>
  <text x="663.0" y="102.8" text-anchor="middle" font-size="10" font-family="-apple-system,BlinkMacSystemFont,'Segoe UI',sans-serif" fill="#d4d4d4" fill-opacity="0.85">Grc Engineering</text>
  <circle cx="533.8" cy="440.0" r="7.3" fill="#6dbf6d" fill-opacity="0.9" filter="url(#glow)"/>
  <text x="533.8" y="459.3" text-anchor="middle" font-size="10" font-family="-apple-system,BlinkMacSystemFont,'Segoe UI',sans-serif" fill="#d4d4d4" fill-opacity="0.85">Health</text>
  <circle cx="228.7" cy="440.0" r="7.3" fill="#909090" fill-opacity="0.9" filter="url(#glow)"/>
  <text x="228.7" y="459.3" text-anchor="middle" font-size="10" font-family="-apple-system,BlinkMacSystemFont,'Segoe UI',sans-serif" fill="#d4d4d4" fill-opacity="0.85">Archives</text>
  <circle cx="328.6" cy="440.0" r="7.3" fill="#c792ea" fill-opacity="0.9" filter="url(#glow)"/>
  <text x="328.6" y="459.3" text-anchor="middle" font-size="10" font-family="-apple-system,BlinkMacSystemFont,'Segoe UI',sans-serif" fill="#d4d4d4" fill-opacity="0.85">Journal</text>
  <circle cx="88.7" cy="256.0" r="11.9" fill="#f78c6c" fill-opacity="0.9" filter="url(#glow)"/>
  <text x="88.7" y="279.9" text-anchor="middle" font-size="10" font-family="-apple-system,BlinkMacSystemFont,'Segoe UI',sans-serif" fill="#d4d4d4" fill-opacity="0.85">Templates</text>
  <circle cx="80.0" cy="440.0" r="7.3" fill="#f78c6c" fill-opacity="0.9" filter="url(#glow)"/>
  <text x="80.0" y="459.3" text-anchor="middle" font-size="10" font-family="-apple-system,BlinkMacSystemFont,'Segoe UI',sans-serif" fill="#d4d4d4" fill-opacity="0.85">Area</text>
  <circle cx="80.0" cy="405.6" r="7.3" fill="#f78c6c" fill-opacity="0.9" filter="url(#glow)"/>
  <text x="80.0" y="424.9" text-anchor="middle" font-size="10" font-family="-apple-system,BlinkMacSystemFont,'Segoe UI',sans-serif" fill="#d4d4d4" fill-opacity="0.85">Book Note</text>
  <circle cx="80.0" cy="341.5" r="7.3" fill="#f78c6c" fill-opacity="0.9" filter="url(#glow)"/>
  <text x="80.0" y="360.8" text-anchor="middle" font-size="10" font-family="-apple-system,BlinkMacSystemFont,'Segoe UI',sans-serif" fill="#d4d4d4" fill-opacity="0.85">Daily Note</text>
  <circle cx="80.0" cy="135.6" r="7.3" fill="#f78c6c" fill-opacity="0.9" filter="url(#glow)"/>
  <text x="80.0" y="154.9" text-anchor="middle" font-size="10" font-family="-apple-system,BlinkMacSystemFont,'Segoe UI',sans-serif" fill="#d4d4d4" fill-opacity="0.85">Project</text>
  <circle cx="80.0" cy="135.6" r="7.3" fill="#f78c6c" fill-opacity="0.9" filter="url(#glow)"/>
  <text x="80.0" y="154.9" text-anchor="middle" font-size="10" font-family="-apple-system,BlinkMacSystemFont,'Segoe UI',sans-serif" fill="#d4d4d4" fill-opacity="0.85">Resource</text>
  <circle cx="80.0" cy="80.0" r="7.3" fill="#f78c6c" fill-opacity="0.9" filter="url(#glow)"/>
  <text x="80.0" y="99.3" text-anchor="middle" font-size="10" font-family="-apple-system,BlinkMacSystemFont,'Segoe UI',sans-serif" fill="#d4d4d4" fill-opacity="0.85">Weekly Review</text>
  <circle cx="349.6" cy="249.9" r="11.9" fill="#e4c97e" fill-opacity="0.9" filter="url(#glow)"/>
  <text x="349.6" y="273.8" text-anchor="middle" font-size="10" font-family="-apple-system,BlinkMacSystemFont,'Segoe UI',sans-serif" fill="#d4d4d4" fill-opacity="0.85">Second Brain</text>
  <polygon points="880.0,432.0 888.0,440.0 880.0,448.0 872.0,440.0" fill="#e8a87c" fill-opacity="0.85" filter="url(#glow)"/>
  <text x="880.0" y="459.3" text-anchor="middle" font-size="10" font-family="-apple-system,BlinkMacSystemFont,'Segoe UI',sans-serif" fill="#d4d4d4" fill-opacity="0.85">Claude Certified Architect — Foundations: Learning Journey &amp; Exam Experience</text>
  <polygon points="880.0,72.0 888.0,80.0 880.0,88.0 872.0,80.0" fill="#e8a87c" fill-opacity="0.85" filter="url(#glow)"/>
  <text x="880.0" y="99.3" text-anchor="middle" font-size="10" font-family="-apple-system,BlinkMacSystemFont,'Segoe UI',sans-serif" fill="#d4d4d4" fill-opacity="0.85">Total TypeScript Tutorials</text>
  <polygon points="880.0,339.9 888.0,347.9 880.0,355.9 872.0,347.9" fill="#e8a87c" fill-opacity="0.85" filter="url(#glow)"/>
  <text x="880.0" y="367.2" text-anchor="middle" font-size="10" font-family="-apple-system,BlinkMacSystemFont,'Segoe UI',sans-serif" fill="#d4d4d4" fill-opacity="0.85">Applied Incident Response</text>
  <polygon points="399.0,72.0 407.0,80.0 399.0,88.0 390.9,80.0" fill="#e8a87c" fill-opacity="0.85" filter="url(#glow)"/>
  <text x="399.0" y="99.3" text-anchor="middle" font-size="10" font-family="-apple-system,BlinkMacSystemFont,'Segoe UI',sans-serif" fill="#d4d4d4" fill-opacity="0.85">GRC Eng Club Academy</text>
  <polygon points="748.7,72.0 756.7,80.0 748.7,88.0 740.7,80.0" fill="#e8a87c" fill-opacity="0.85" filter="url(#glow)"/>
  <text x="748.7" y="99.3" text-anchor="middle" font-size="10" font-family="-apple-system,BlinkMacSystemFont,'Segoe UI',sans-serif" fill="#d4d4d4" fill-opacity="0.85">GRC Engineering</text>
  <polygon points="816.4,72.0 824.4,80.0 816.4,88.0 808.3,80.0" fill="#e8a87c" fill-opacity="0.85" filter="url(#glow)"/>
  <text x="816.4" y="99.3" text-anchor="middle" font-size="10" font-family="-apple-system,BlinkMacSystemFont,'Segoe UI',sans-serif" fill="#d4d4d4" fill-opacity="0.85">GRC Playground</text>
  <polygon points="880.0,72.0 888.0,80.0 880.0,88.0 872.0,80.0" fill="#e8a87c" fill-opacity="0.85" filter="url(#glow)"/>
  <text x="880.0" y="99.3" text-anchor="middle" font-size="10" font-family="-apple-system,BlinkMacSystemFont,'Segoe UI',sans-serif" fill="#d4d4d4" fill-opacity="0.85">OPA Rego Course — Styra Academy</text>
  <polygon points="230.0,72.0 238.0,80.0 230.0,88.0 222.0,80.0" fill="#e8a87c" fill-opacity="0.85" filter="url(#glow)"/>
  <text x="230.0" y="99.3" text-anchor="middle" font-size="10" font-family="-apple-system,BlinkMacSystemFont,'Segoe UI',sans-serif" fill="#d4d4d4" fill-opacity="0.85">→ Open interactive graph</text>
  </g>
  <rect x="14" y="336" width="100" height="166" rx="6" fill="#141414" fill-opacity="0.88" stroke="#363636" stroke-width="1"/>
  <text x="23" y="349" font-size="9" font-family="-apple-system,BlinkMacSystemFont,'Segoe UI',sans-serif" fill="#666" letter-spacing="0.08em">LEGEND</text>
  <circle cx="27" cy="365" r="4.5" fill="#56c2d6"/>
  <text x="38" y="369" font-size="10" font-family="-apple-system,BlinkMacSystemFont,'Segoe UI',sans-serif" fill="#bbbbbb">Inbox</text>
  <circle cx="27" cy="383" r="4.5" fill="#7ec8e3"/>
  <text x="38" y="387" font-size="10" font-family="-apple-system,BlinkMacSystemFont,'Segoe UI',sans-serif" fill="#bbbbbb">Projects</text>
  <circle cx="27" cy="401" r="4.5" fill="#6dbf6d"/>
  <text x="38" y="405" font-size="10" font-family="-apple-system,BlinkMacSystemFont,'Segoe UI',sans-serif" fill="#bbbbbb">Resources</text>
  <circle cx="27" cy="419" r="4.5" fill="#909090"/>
  <text x="38" y="423" font-size="10" font-family="-apple-system,BlinkMacSystemFont,'Segoe UI',sans-serif" fill="#bbbbbb">Archives</text>
  <circle cx="27" cy="437" r="4.5" fill="#c792ea"/>
  <text x="38" y="441" font-size="10" font-family="-apple-system,BlinkMacSystemFont,'Segoe UI',sans-serif" fill="#bbbbbb">Journal</text>
  <circle cx="27" cy="455" r="4.5" fill="#f78c6c"/>
  <text x="38" y="459" font-size="10" font-family="-apple-system,BlinkMacSystemFont,'Segoe UI',sans-serif" fill="#bbbbbb">Templates</text>
  <circle cx="27" cy="473" r="4.5" fill="#e4c97e"/>
  <text x="38" y="477" font-size="10" font-family="-apple-system,BlinkMacSystemFont,'Segoe UI',sans-serif" fill="#bbbbbb">Root</text>
  <circle cx="27" cy="491" r="4.5" fill="#e8a87c"/>
  <text x="38" y="495" font-size="10" font-family="-apple-system,BlinkMacSystemFont,'Segoe UI',sans-serif" fill="#bbbbbb">Resource Link</text>
  <rect x="805" y="12" width="143" height="24" rx="5" fill="#141414" fill-opacity="0.88" stroke="#363636" stroke-width="1"/>
  <text x="876" y="28" text-anchor="middle" font-size="10" font-family="-apple-system,BlinkMacSystemFont,'Segoe UI',sans-serif" fill="#888">28 notes · 27 connections</text>
</svg>