<svg xmlns="http://www.w3.org/2000/svg" width="960" height="520" viewBox="0 0 960 520">
  <defs>
    <radialGradient id="bg" cx="50%" cy="50%" r="70%">
      <stop offset="0%" stop-color="#222222"/>
      <stop offset="100%" stop-color="#141414"/>
    </radialGradient>
    <filter id="glow" x="-40%" y="-40%" width="180%" height="180%">
      <feGaussianBlur stdDeviation="3.5" result="coloredBlur"/>
      <feMerge>
        <feMergeNode in="coloredBlur"/>
        <feMergeNode in="SourceGraphic"/>
      </feMerge>
    </filter>
  </defs>
  <rect width="960" height="520" fill="url(#bg)" rx="8"/>
  <g id="edges">
  <line x1="383.1" y1="353.7" x2="447.3" y2="440.0" stroke="#ffffff" stroke-opacity="0.18" stroke-width="1.5"/>
  <line x1="383.1" y1="353.7" x2="603.7" y2="440.0" stroke="#ffffff" stroke-opacity="0.18" stroke-width="1.5"/>
  <line x1="383.1" y1="353.7" x2="681.5" y2="440.0" stroke="#ffffff" stroke-opacity="0.18" stroke-width="1.5"/>
  <line x1="383.1" y1="353.7" x2="216.7" y2="440.0" stroke="#ffffff" stroke-opacity="0.18" stroke-width="1.5"/>
  <line x1="383.1" y1="353.7" x2="609.5" y2="125.2" stroke="#ffffff" stroke-opacity="0.18" stroke-width="1.5"/>
  <line x1="383.1" y1="353.7" x2="80.0" y2="440.0" stroke="#ffffff" stroke-opacity="0.18" stroke-width="1.5"/>
  <line x1="383.1" y1="353.7" x2="140.4" y2="440.0" stroke="#ffffff" stroke-opacity="0.18" stroke-width="1.5"/>
  <line x1="681.5" y1="440.0" x2="880.0" y2="440.0" stroke="#ffffff" stroke-opacity="0.18" stroke-width="1.5"/>
  <line x1="252.5" y1="135.0" x2="514.8" y2="80.0" stroke="#ffffff" stroke-opacity="0.18" stroke-width="1.5"/>
  <line x1="252.5" y1="135.0" x2="80.0" y2="218.6" stroke="#ffffff" stroke-opacity="0.18" stroke-width="1.5"/>
  <line x1="252.5" y1="135.0" x2="383.1" y2="353.7" stroke="#ffffff" stroke-opacity="0.18" stroke-width="1.5"/>
  <line x1="252.5" y1="135.0" x2="80.0" y2="120.7" stroke="#ffffff" stroke-opacity="0.18" stroke-width="1.5"/>
  <line x1="252.5" y1="135.0" x2="80.0" y2="80.0" stroke="#ffffff" stroke-opacity="0.18" stroke-width="1.5"/>
  <line x1="447.3" y1="440.0" x2="320.2" y2="440.0" stroke="#ffffff" stroke-opacity="0.18" stroke-width="1.5"/>
  <line x1="603.7" y1="440.0" x2="811.3" y2="440.0" stroke="#ffffff" stroke-opacity="0.18" stroke-width="1.5"/>
  <line x1="880.0" y1="440.0" x2="880.0" y2="322.0" stroke="#ffffff" stroke-opacity="0.18" stroke-width="1.5"/>
  <line x1="609.5" y1="125.2" x2="412.8" y2="80.0" stroke="#ffffff" stroke-opacity="0.18" stroke-width="1.5"/>
  <line x1="609.5" y1="125.2" x2="351.4" y2="80.0" stroke="#ffffff" stroke-opacity="0.18" stroke-width="1.5"/>
  <line x1="609.5" y1="125.2" x2="806.6" y2="80.0" stroke="#ffffff" stroke-opacity="0.18" stroke-width="1.5"/>
  <line x1="609.5" y1="125.2" x2="880.0" y2="80.0" stroke="#ffffff" stroke-opacity="0.18" stroke-width="1.5"/>
  <line x1="252.5" y1="135.0" x2="454.3" y2="80.0" stroke="#ffffff" stroke-opacity="0.18" stroke-width="1.5"/>
  </g>
  <g id="nodes">
  <circle cx="514.8" cy="80.0" r="7.3" fill="#56c2d6" fill-opacity="0.9" filter="url(#glow)"/>
  <text x="514.8" y="99.3" text-anchor="middle" font-size="10" font-family="-apple-system,BlinkMacSystemFont,'Segoe UI',sans-serif" fill="#d4d4d4" fill-opacity="0.85">Inbox</text>
  <circle cx="80.0" cy="218.6" r="7.3" fill="#7ec8e3" fill-opacity="0.9" filter="url(#glow)"/>
  <text x="80.0" y="237.9" text-anchor="middle" font-size="10" font-family="-apple-system,BlinkMacSystemFont,'Segoe UI',sans-serif" fill="#d4d4d4" fill-opacity="0.85">Projects</text>
  <circle cx="383.1" cy="353.7" r="12.4" fill="#6dbf6d" fill-opacity="0.9" filter="url(#glow)"/>
  <text x="383.1" y="378.1" text-anchor="middle" font-size="10" font-family="-apple-system,BlinkMacSystemFont,'Segoe UI',sans-serif" fill="#d4d4d4" fill-opacity="0.85">Resources</text>
  <circle cx="447.3" cy="440.0" r="8.5" fill="#6dbf6d" fill-opacity="0.9" filter="url(#glow)"/>
  <text x="447.3" y="460.5" text-anchor="middle" font-size="10" font-family="-apple-system,BlinkMacSystemFont,'Segoe UI',sans-serif" fill="#d4d4d4" fill-opacity="0.85">Ai</text>
  <circle cx="603.7" cy="440.0" r="8.5" fill="#6dbf6d" fill-opacity="0.9" filter="url(#glow)"/>
  <text x="603.7" y="460.5" text-anchor="middle" font-size="10" font-family="-apple-system,BlinkMacSystemFont,'Segoe UI',sans-serif" fill="#d4d4d4" fill-opacity="0.85">Coding</text>
  <circle cx="681.5" cy="440.0" r="8.5" fill="#6dbf6d" fill-opacity="0.9" filter="url(#glow)"/>
  <text x="681.5" y="460.5" text-anchor="middle" font-size="10" font-family="-apple-system,BlinkMacSystemFont,'Segoe UI',sans-serif" fill="#d4d4d4" fill-opacity="0.85">Cybersecurity</text>
  <circle cx="880.0" cy="440.0" r="8.5" fill="#6dbf6d" fill-opacity="0.9" filter="url(#glow)"/>
  <text x="880.0" y="460.5" text-anchor="middle" font-size="10" font-family="-apple-system,BlinkMacSystemFont,'Segoe UI',sans-serif" fill="#d4d4d4" fill-opacity="0.85">Digital Forensics And Incident Response</text>
  <circle cx="216.7" cy="440.0" r="7.3" fill="#6dbf6d" fill-opacity="0.9" filter="url(#glow)"/>
  <text x="216.7" y="459.3" text-anchor="middle" font-size="10" font-family="-apple-system,BlinkMacSystemFont,'Segoe UI',sans-serif" fill="#d4d4d4" fill-opacity="0.85">Finances</text>
  <circle cx="609.5" cy="125.2" r="10.8" fill="#6dbf6d" fill-opacity="0.9" filter="url(#glow)"/>
  <text x="609.5" y="148.0" text-anchor="middle" font-size="10" font-family="-apple-system,BlinkMacSystemFont,'Segoe UI',sans-serif" fill="#d4d4d4" fill-opacity="0.85">Grc Engineering</text>
  <circle cx="80.0" cy="440.0" r="7.3" fill="#6dbf6d" fill-opacity="0.9" filter="url(#glow)"/>
  <text x="80.0" y="459.3" text-anchor="middle" font-size="10" font-family="-apple-system,BlinkMacSystemFont,'Segoe UI',sans-serif" fill="#d4d4d4" fill-opacity="0.85">Health</text>
  <circle cx="140.4" cy="440.0" r="7.3" fill="#6dbf6d" fill-opacity="0.9" filter="url(#glow)"/>
  <text x="140.4" y="459.3" text-anchor="middle" font-size="10" font-family="-apple-system,BlinkMacSystemFont,'Segoe UI',sans-serif" fill="#d4d4d4" fill-opacity="0.85">Philosophy</text>
  <circle cx="80.0" cy="120.7" r="7.3" fill="#909090" fill-opacity="0.9" filter="url(#glow)"/>
  <text x="80.0" y="140.0" text-anchor="middle" font-size="10" font-family="-apple-system,BlinkMacSystemFont,'Segoe UI',sans-serif" fill="#d4d4d4" fill-opacity="0.85">Archives</text>
  <circle cx="80.0" cy="80.0" r="7.3" fill="#e4c97e" fill-opacity="0.9" filter="url(#glow)"/>
  <text x="80.0" y="99.3" text-anchor="middle" font-size="10" font-family="-apple-system,BlinkMacSystemFont,'Segoe UI',sans-serif" fill="#d4d4d4" fill-opacity="0.85">GUIDE</text>
  <circle cx="252.5" cy="135.0" r="11.4" fill="#e4c97e" fill-opacity="0.9" filter="url(#glow)"/>
  <text x="252.5" y="158.4" text-anchor="middle" font-size="10" font-family="-apple-system,BlinkMacSystemFont,'Segoe UI',sans-serif" fill="#d4d4d4" fill-opacity="0.85">Second Brain</text>
  <polygon points="320.2,432.0 328.3,440.0 320.2,448.0 312.2,440.0" fill="#e8a87c" fill-opacity="0.85" filter="url(#glow)"/>
  <text x="320.2" y="459.3" text-anchor="middle" font-size="10" font-family="-apple-system,BlinkMacSystemFont,'Segoe UI',sans-serif" fill="#d4d4d4" fill-opacity="0.85">Claude Certified Architect — Foundations: Learning Journey &amp; Exam Experience</text>
  <polygon points="811.3,432.0 819.3,440.0 811.3,448.0 803.2,440.0" fill="#e8a87c" fill-opacity="0.85" filter="url(#glow)"/>
  <text x="811.3" y="459.3" text-anchor="middle" font-size="10" font-family="-apple-system,BlinkMacSystemFont,'Segoe UI',sans-serif" fill="#d4d4d4" fill-opacity="0.85">Total TypeScript Tutorials</text>
  <polygon points="880.0,314.0 888.0,322.0 880.0,330.0 872.0,322.0" fill="#e8a87c" fill-opacity="0.85" filter="url(#glow)"/>
  <text x="880.0" y="341.3" text-anchor="middle" font-size="10" font-family="-apple-system,BlinkMacSystemFont,'Segoe UI',sans-serif" fill="#d4d4d4" fill-opacity="0.85">Applied Incident Response</text>
  <polygon points="412.8,72.0 420.8,80.0 412.8,88.0 404.7,80.0" fill="#e8a87c" fill-opacity="0.85" filter="url(#glow)"/>
  <text x="412.8" y="99.3" text-anchor="middle" font-size="10" font-family="-apple-system,BlinkMacSystemFont,'Segoe UI',sans-serif" fill="#d4d4d4" fill-opacity="0.85">GRC Eng Club Academy</text>
  <polygon points="351.4,72.0 359.5,80.0 351.4,88.0 343.4,80.0" fill="#e8a87c" fill-opacity="0.85" filter="url(#glow)"/>
  <text x="351.4" y="99.3" text-anchor="middle" font-size="10" font-family="-apple-system,BlinkMacSystemFont,'Segoe UI',sans-serif" fill="#d4d4d4" fill-opacity="0.85">GRC Engineering</text>
  <polygon points="806.6,72.0 814.6,80.0 806.6,88.0 798.5,80.0" fill="#e8a87c" fill-opacity="0.85" filter="url(#glow)"/>
  <text x="806.6" y="99.3" text-anchor="middle" font-size="10" font-family="-apple-system,BlinkMacSystemFont,'Segoe UI',sans-serif" fill="#d4d4d4" fill-opacity="0.85">GRC Playground</text>
  <polygon points="880.0,72.0 888.0,80.0 880.0,88.0 872.0,80.0" fill="#e8a87c" fill-opacity="0.85" filter="url(#glow)"/>
  <text x="880.0" y="99.3" text-anchor="middle" font-size="10" font-family="-apple-system,BlinkMacSystemFont,'Segoe UI',sans-serif" fill="#d4d4d4" fill-opacity="0.85">OPA Rego Course — Styra Academy</text>
  <polygon points="454.3,72.0 462.3,80.0 454.3,88.0 446.2,80.0" fill="#e8a87c" fill-opacity="0.85" filter="url(#glow)"/>
  <text x="454.3" y="99.3" text-anchor="middle" font-size="10" font-family="-apple-system,BlinkMacSystemFont,'Segoe UI',sans-serif" fill="#d4d4d4" fill-opacity="0.85">→ Open interactive graph</text>
  </g>
  <rect x="14" y="372" width="100" height="130" rx="6" fill="#141414" fill-opacity="0.88" stroke="#363636" stroke-width="1"/>
  <text x="23" y="385" font-size="9" font-family="-apple-system,BlinkMacSystemFont,'Segoe UI',sans-serif" fill="#666" letter-spacing="0.08em">LEGEND</text>
  <circle cx="27" cy="401" r="4.5" fill="#56c2d6"/>
  <text x="38" y="405" font-size="10" font-family="-apple-system,BlinkMacSystemFont,'Segoe UI',sans-serif" fill="#bbbbbb">Inbox</text>
  <circle cx="27" cy="419" r="4.5" fill="#7ec8e3"/>
  <text x="38" y="423" font-size="10" font-family="-apple-system,BlinkMacSystemFont,'Segoe UI',sans-serif" fill="#bbbbbb">Projects</text>
  <circle cx="27" cy="437" r="4.5" fill="#6dbf6d"/>
  <text x="38" y="441" font-size="10" font-family="-apple-system,BlinkMacSystemFont,'Segoe UI',sans-serif" fill="#bbbbbb">Resources</text>
  <circle cx="27" cy="455" r="4.5" fill="#909090"/>
  <text x="38" y="459" font-size="10" font-family="-apple-system,BlinkMacSystemFont,'Segoe UI',sans-serif" fill="#bbbbbb">Archives</text>
  <circle cx="27" cy="473" r="4.5" fill="#e4c97e"/>
  <text x="38" y="477" font-size="10" font-family="-apple-system,BlinkMacSystemFont,'Segoe UI',sans-serif" fill="#bbbbbb">Root</text>
  <circle cx="27" cy="491" r="4.5" fill="#e8a87c"/>
  <text x="38" y="495" font-size="10" font-family="-apple-system,BlinkMacSystemFont,'Segoe UI',sans-serif" fill="#bbbbbb">Resource Link</text>
  <rect x="805" y="12" width="143" height="24" rx="5" fill="#141414" fill-opacity="0.88" stroke="#363636" stroke-width="1"/>
  <text x="876" y="28" text-anchor="middle" font-size="10" font-family="-apple-system,BlinkMacSystemFont,'Segoe UI',sans-serif" fill="#888">22 notes · 21 connections</text>
</svg>