<svg xmlns="http://www.w3.org/2000/svg" width="960" height="520" viewBox="0 0 960 520">
  <defs>
    <radialGradient id="bg" cx="50%" cy="50%" r="70%">
      <stop offset="0%" stop-color="#222222"/>
      <stop offset="100%" stop-color="#141414"/>
    </radialGradient>
    <filter id="glow" x="-40%" y="-40%" width="180%" height="180%">
      <feGaussianBlur stdDeviation="3.5" result="coloredBlur"/>
      <feMerge>
        <feMergeNode in="coloredBlur"/>
        <feMergeNode in="SourceGraphic"/>
      </feMerge>
    </filter>
  </defs>
  <rect width="960" height="520" fill="url(#bg)" rx="8"/>
  <g id="edges">
  <line x1="625.5" y1="318.6" x2="560.8" y2="93.4" stroke="#ffffff" stroke-opacity="0.18" stroke-width="1.5"/>
  <line x1="625.5" y1="318.6" x2="880.0" y2="263.5" stroke="#ffffff" stroke-opacity="0.18" stroke-width="1.5"/>
  <line x1="625.5" y1="318.6" x2="801.8" y2="440.0" stroke="#ffffff" stroke-opacity="0.18" stroke-width="1.5"/>
  <line x1="625.5" y1="318.6" x2="717.4" y2="440.0" stroke="#ffffff" stroke-opacity="0.18" stroke-width="1.5"/>
  <line x1="625.5" y1="318.6" x2="775.8" y2="165.1" stroke="#ffffff" stroke-opacity="0.18" stroke-width="1.5"/>
  <line x1="625.5" y1="318.6" x2="513.8" y2="440.0" stroke="#ffffff" stroke-opacity="0.18" stroke-width="1.5"/>
  <line x1="625.5" y1="318.6" x2="454.3" y2="440.0" stroke="#ffffff" stroke-opacity="0.18" stroke-width="1.5"/>
  <line x1="801.8" y1="440.0" x2="880.0" y2="440.0" stroke="#ffffff" stroke-opacity="0.18" stroke-width="1.5"/>
  <line x1="89.6" y1="238.7" x2="80.0" y2="80.0" stroke="#ffffff" stroke-opacity="0.18" stroke-width="1.5"/>
  <line x1="89.6" y1="238.7" x2="80.0" y2="440.0" stroke="#ffffff" stroke-opacity="0.18" stroke-width="1.5"/>
  <line x1="89.6" y1="238.7" x2="146.4" y2="80.0" stroke="#ffffff" stroke-opacity="0.18" stroke-width="1.5"/>
  <line x1="89.6" y1="238.7" x2="80.0" y2="158.2" stroke="#ffffff" stroke-opacity="0.18" stroke-width="1.5"/>
  <line x1="89.6" y1="238.7" x2="80.0" y2="80.0" stroke="#ffffff" stroke-opacity="0.18" stroke-width="1.5"/>
  <line x1="89.6" y1="238.7" x2="80.0" y2="339.5" stroke="#ffffff" stroke-opacity="0.18" stroke-width="1.5"/>
  <line x1="322.8" y1="350.5" x2="278.6" y2="172.4" stroke="#ffffff" stroke-opacity="0.18" stroke-width="1.5"/>
  <line x1="322.8" y1="350.5" x2="550.4" y2="440.0" stroke="#ffffff" stroke-opacity="0.18" stroke-width="1.5"/>
  <line x1="322.8" y1="350.5" x2="625.5" y2="318.6" stroke="#ffffff" stroke-opacity="0.18" stroke-width="1.5"/>
  <line x1="322.8" y1="350.5" x2="265.7" y2="440.0" stroke="#ffffff" stroke-opacity="0.18" stroke-width="1.5"/>
  <line x1="322.8" y1="350.5" x2="123.2" y2="440.0" stroke="#ffffff" stroke-opacity="0.18" stroke-width="1.5"/>
  <line x1="322.8" y1="350.5" x2="89.6" y2="238.7" stroke="#ffffff" stroke-opacity="0.18" stroke-width="1.5"/>
  <line x1="560.8" y1="93.4" x2="440.3" y2="80.0" stroke="#ffffff" stroke-opacity="0.18" stroke-width="1.5"/>
  <line x1="880.0" y1="263.5" x2="880.0" y2="80.0" stroke="#ffffff" stroke-opacity="0.18" stroke-width="1.5"/>
  <line x1="880.0" y1="440.0" x2="880.0" y2="402.6" stroke="#ffffff" stroke-opacity="0.18" stroke-width="1.5"/>
  <line x1="775.8" y1="165.1" x2="713.2" y2="80.0" stroke="#ffffff" stroke-opacity="0.18" stroke-width="1.5"/>
  <line x1="775.8" y1="165.1" x2="880.0" y2="80.0" stroke="#ffffff" stroke-opacity="0.18" stroke-width="1.5"/>
  <line x1="775.8" y1="165.1" x2="820.6" y2="80.0" stroke="#ffffff" stroke-opacity="0.18" stroke-width="1.5"/>
  <line x1="775.8" y1="165.1" x2="880.0" y2="173.1" stroke="#ffffff" stroke-opacity="0.18" stroke-width="1.5"/>
  <line x1="322.8" y1="350.5" x2="186.7" y2="440.0" stroke="#ffffff" stroke-opacity="0.18" stroke-width="1.5"/>
  </g>
  <g id="nodes">
  <circle cx="278.6" cy="172.4" r="7.3" fill="#56c2d6" fill-opacity="0.9" filter="url(#glow)"/>
  <text x="278.6" y="191.7" text-anchor="middle" font-size="10" font-family="-apple-system,BlinkMacSystemFont,'Segoe UI',sans-serif" fill="#d4d4d4" fill-opacity="0.85">Inbox</text>
  <circle cx="550.4" cy="440.0" r="7.3" fill="#7ec8e3" fill-opacity="0.9" filter="url(#glow)"/>
  <text x="550.4" y="459.3" text-anchor="middle" font-size="10" font-family="-apple-system,BlinkMacSystemFont,'Segoe UI',sans-serif" fill="#d4d4d4" fill-opacity="0.85">Projects</text>
  <circle cx="625.5" cy="318.6" r="12.4" fill="#6dbf6d" fill-opacity="0.9" filter="url(#glow)"/>
  <text x="625.5" y="343.0" text-anchor="middle" font-size="10" font-family="-apple-system,BlinkMacSystemFont,'Segoe UI',sans-serif" fill="#d4d4d4" fill-opacity="0.85">Resources</text>
  <circle cx="560.8" cy="93.4" r="8.5" fill="#6dbf6d" fill-opacity="0.9" filter="url(#glow)"/>
  <text x="560.8" y="113.9" text-anchor="middle" font-size="10" font-family="-apple-system,BlinkMacSystemFont,'Segoe UI',sans-serif" fill="#d4d4d4" fill-opacity="0.85">Ai</text>
  <circle cx="880.0" cy="263.5" r="8.5" fill="#6dbf6d" fill-opacity="0.9" filter="url(#glow)"/>
  <text x="880.0" y="284.0" text-anchor="middle" font-size="10" font-family="-apple-system,BlinkMacSystemFont,'Segoe UI',sans-serif" fill="#d4d4d4" fill-opacity="0.85">Coding</text>
  <circle cx="801.8" cy="440.0" r="8.5" fill="#6dbf6d" fill-opacity="0.9" filter="url(#glow)"/>
  <text x="801.8" y="460.5" text-anchor="middle" font-size="10" font-family="-apple-system,BlinkMacSystemFont,'Segoe UI',sans-serif" fill="#d4d4d4" fill-opacity="0.85">Cybersecurity</text>
  <circle cx="880.0" cy="440.0" r="8.5" fill="#6dbf6d" fill-opacity="0.9" filter="url(#glow)"/>
  <text x="880.0" y="460.5" text-anchor="middle" font-size="10" font-family="-apple-system,BlinkMacSystemFont,'Segoe UI',sans-serif" fill="#d4d4d4" fill-opacity="0.85">Digital Forensics And Incident Response</text>
  <circle cx="717.4" cy="440.0" r="7.3" fill="#6dbf6d" fill-opacity="0.9" filter="url(#glow)"/>
  <text x="717.4" y="459.3" text-anchor="middle" font-size="10" font-family="-apple-system,BlinkMacSystemFont,'Segoe UI',sans-serif" fill="#d4d4d4" fill-opacity="0.85">Finances</text>
  <circle cx="775.8" cy="165.1" r="10.8" fill="#6dbf6d" fill-opacity="0.9" filter="url(#glow)"/>
  <text x="775.8" y="187.9" text-anchor="middle" font-size="10" font-family="-apple-system,BlinkMacSystemFont,'Segoe UI',sans-serif" fill="#d4d4d4" fill-opacity="0.85">Grc Engineering</text>
  <circle cx="513.8" cy="440.0" r="7.3" fill="#6dbf6d" fill-opacity="0.9" filter="url(#glow)"/>
  <text x="513.8" y="459.3" text-anchor="middle" font-size="10" font-family="-apple-system,BlinkMacSystemFont,'Segoe UI',sans-serif" fill="#d4d4d4" fill-opacity="0.85">Health</text>
  <circle cx="454.3" cy="440.0" r="7.3" fill="#6dbf6d" fill-opacity="0.9" filter="url(#glow)"/>
  <text x="454.3" y="459.3" text-anchor="middle" font-size="10" font-family="-apple-system,BlinkMacSystemFont,'Segoe UI',sans-serif" fill="#d4d4d4" fill-opacity="0.85">Philosophy</text>
  <circle cx="265.7" cy="440.0" r="7.3" fill="#909090" fill-opacity="0.9" filter="url(#glow)"/>
  <text x="265.7" y="459.3" text-anchor="middle" font-size="10" font-family="-apple-system,BlinkMacSystemFont,'Segoe UI',sans-serif" fill="#d4d4d4" fill-opacity="0.85">Archives</text>
  <circle cx="123.2" cy="440.0" r="7.3" fill="#c792ea" fill-opacity="0.9" filter="url(#glow)"/>
  <text x="123.2" y="459.3" text-anchor="middle" font-size="10" font-family="-apple-system,BlinkMacSystemFont,'Segoe UI',sans-serif" fill="#d4d4d4" fill-opacity="0.85">Journal</text>
  <circle cx="89.6" cy="238.7" r="11.9" fill="#f78c6c" fill-opacity="0.9" filter="url(#glow)"/>
  <text x="89.6" y="262.6" text-anchor="middle" font-size="10" font-family="-apple-system,BlinkMacSystemFont,'Segoe UI',sans-serif" fill="#d4d4d4" fill-opacity="0.85">Templates</text>
  <circle cx="80.0" cy="440.0" r="7.3" fill="#f78c6c" fill-opacity="0.9" filter="url(#glow)"/>
  <text x="80.0" y="459.3" text-anchor="middle" font-size="10" font-family="-apple-system,BlinkMacSystemFont,'Segoe UI',sans-serif" fill="#d4d4d4" fill-opacity="0.85">Area</text>
  <circle cx="80.0" cy="339.5" r="7.3" fill="#f78c6c" fill-opacity="0.9" filter="url(#glow)"/>
  <text x="80.0" y="358.8" text-anchor="middle" font-size="10" font-family="-apple-system,BlinkMacSystemFont,'Segoe UI',sans-serif" fill="#d4d4d4" fill-opacity="0.85">Book Note</text>
  <circle cx="80.0" cy="158.2" r="7.3" fill="#f78c6c" fill-opacity="0.9" filter="url(#glow)"/>
  <text x="80.0" y="177.5" text-anchor="middle" font-size="10" font-family="-apple-system,BlinkMacSystemFont,'Segoe UI',sans-serif" fill="#d4d4d4" fill-opacity="0.85">Daily Note</text>
  <circle cx="80.0" cy="80.0" r="7.3" fill="#f78c6c" fill-opacity="0.9" filter="url(#glow)"/>
  <text x="80.0" y="99.3" text-anchor="middle" font-size="10" font-family="-apple-system,BlinkMacSystemFont,'Segoe UI',sans-serif" fill="#d4d4d4" fill-opacity="0.85">Project</text>
  <circle cx="146.4" cy="80.0" r="7.3" fill="#f78c6c" fill-opacity="0.9" filter="url(#glow)"/>
  <text x="146.4" y="99.3" text-anchor="middle" font-size="10" font-family="-apple-system,BlinkMacSystemFont,'Segoe UI',sans-serif" fill="#d4d4d4" fill-opacity="0.85">Resource</text>
  <circle cx="80.0" cy="80.0" r="7.3" fill="#f78c6c" fill-opacity="0.9" filter="url(#glow)"/>
  <text x="80.0" y="99.3" text-anchor="middle" font-size="10" font-family="-apple-system,BlinkMacSystemFont,'Segoe UI',sans-serif" fill="#d4d4d4" fill-opacity="0.85">Weekly Review</text>
  <circle cx="322.8" cy="350.5" r="11.9" fill="#e4c97e" fill-opacity="0.9" filter="url(#glow)"/>
  <text x="322.8" y="374.4" text-anchor="middle" font-size="10" font-family="-apple-system,BlinkMacSystemFont,'Segoe UI',sans-serif" fill="#d4d4d4" fill-opacity="0.85">Second Brain</text>
  <polygon points="440.3,72.0 448.4,80.0 440.3,88.0 432.3,80.0" fill="#e8a87c" fill-opacity="0.85" filter="url(#glow)"/>
  <text x="440.3" y="99.3" text-anchor="middle" font-size="10" font-family="-apple-system,BlinkMacSystemFont,'Segoe UI',sans-serif" fill="#d4d4d4" fill-opacity="0.85">Claude Certified Architect — Foundations: Learning Journey &amp; Exam Experience</text>
  <polygon points="880.0,72.0 888.0,80.0 880.0,88.0 872.0,80.0" fill="#e8a87c" fill-opacity="0.85" filter="url(#glow)"/>
  <text x="880.0" y="99.3" text-anchor="middle" font-size="10" font-family="-apple-system,BlinkMacSystemFont,'Segoe UI',sans-serif" fill="#d4d4d4" fill-opacity="0.85">Total TypeScript Tutorials</text>
  <polygon points="880.0,394.6 888.0,402.6 880.0,410.6 872.0,402.6" fill="#e8a87c" fill-opacity="0.85" filter="url(#glow)"/>
  <text x="880.0" y="421.9" text-anchor="middle" font-size="10" font-family="-apple-system,BlinkMacSystemFont,'Segoe UI',sans-serif" fill="#d4d4d4" fill-opacity="0.85">Applied Incident Response</text>
  <polygon points="713.2,72.0 721.2,80.0 713.2,88.0 705.2,80.0" fill="#e8a87c" fill-opacity="0.85" filter="url(#glow)"/>
  <text x="713.2" y="99.3" text-anchor="middle" font-size="10" font-family="-apple-system,BlinkMacSystemFont,'Segoe UI',sans-serif" fill="#d4d4d4" fill-opacity="0.85">GRC Eng Club Academy</text>
  <polygon points="880.0,72.0 888.0,80.0 880.0,88.0 872.0,80.0" fill="#e8a87c" fill-opacity="0.85" filter="url(#glow)"/>
  <text x="880.0" y="99.3" text-anchor="middle" font-size="10" font-family="-apple-system,BlinkMacSystemFont,'Segoe UI',sans-serif" fill="#d4d4d4" fill-opacity="0.85">GRC Engineering</text>
  <polygon points="820.6,72.0 828.7,80.0 820.6,88.0 812.6,80.0" fill="#e8a87c" fill-opacity="0.85" filter="url(#glow)"/>
  <text x="820.6" y="99.3" text-anchor="middle" font-size="10" font-family="-apple-system,BlinkMacSystemFont,'Segoe UI',sans-serif" fill="#d4d4d4" fill-opacity="0.85">GRC Playground</text>
  <polygon points="880.0,165.1 888.0,173.1 880.0,181.1 872.0,173.1" fill="#e8a87c" fill-opacity="0.85" filter="url(#glow)"/>
  <text x="880.0" y="192.4" text-anchor="middle" font-size="10" font-family="-apple-system,BlinkMacSystemFont,'Segoe UI',sans-serif" fill="#d4d4d4" fill-opacity="0.85">OPA Rego Course — Styra Academy</text>
  <polygon points="186.7,432.0 194.7,440.0 186.7,448.0 178.6,440.0" fill="#e8a87c" fill-opacity="0.85" filter="url(#glow)"/>
  <text x="186.7" y="459.3" text-anchor="middle" font-size="10" font-family="-apple-system,BlinkMacSystemFont,'Segoe UI',sans-serif" fill="#d4d4d4" fill-opacity="0.85">→ Open interactive graph</text>
  </g>
  <rect x="14" y="336" width="100" height="166" rx="6" fill="#141414" fill-opacity="0.88" stroke="#363636" stroke-width="1"/>
  <text x="23" y="349" font-size="9" font-family="-apple-system,BlinkMacSystemFont,'Segoe UI',sans-serif" fill="#666" letter-spacing="0.08em">LEGEND</text>
  <circle cx="27" cy="365" r="4.5" fill="#56c2d6"/>
  <text x="38" y="369" font-size="10" font-family="-apple-system,BlinkMacSystemFont,'Segoe UI',sans-serif" fill="#bbbbbb">Inbox</text>
  <circle cx="27" cy="383" r="4.5" fill="#7ec8e3"/>
  <text x="38" y="387" font-size="10" font-family="-apple-system,BlinkMacSystemFont,'Segoe UI',sans-serif" fill="#bbbbbb">Projects</text>
  <circle cx="27" cy="401" r="4.5" fill="#6dbf6d"/>
  <text x="38" y="405" font-size="10" font-family="-apple-system,BlinkMacSystemFont,'Segoe UI',sans-serif" fill="#bbbbbb">Resources</text>
  <circle cx="27" cy="419" r="4.5" fill="#909090"/>
  <text x="38" y="423" font-size="10" font-family="-apple-system,BlinkMacSystemFont,'Segoe UI',sans-serif" fill="#bbbbbb">Archives</text>
  <circle cx="27" cy="437" r="4.5" fill="#c792ea"/>
  <text x="38" y="441" font-size="10" font-family="-apple-system,BlinkMacSystemFont,'Segoe UI',sans-serif" fill="#bbbbbb">Journal</text>
  <circle cx="27" cy="455" r="4.5" fill="#f78c6c"/>
  <text x="38" y="459" font-size="10" font-family="-apple-system,BlinkMacSystemFont,'Segoe UI',sans-serif" fill="#bbbbbb">Templates</text>
  <circle cx="27" cy="473" r="4.5" fill="#e4c97e"/>
  <text x="38" y="477" font-size="10" font-family="-apple-system,BlinkMacSystemFont,'Segoe UI',sans-serif" fill="#bbbbbb">Root</text>
  <circle cx="27" cy="491" r="4.5" fill="#e8a87c"/>
  <text x="38" y="495" font-size="10" font-family="-apple-system,BlinkMacSystemFont,'Segoe UI',sans-serif" fill="#bbbbbb">Resource Link</text>
  <rect x="805" y="12" width="143" height="24" rx="5" fill="#141414" fill-opacity="0.88" stroke="#363636" stroke-width="1"/>
  <text x="876" y="28" text-anchor="middle" font-size="10" font-family="-apple-system,BlinkMacSystemFont,'Segoe UI',sans-serif" fill="#888">29 notes · 28 connections</text>
</svg>